<svg version="1.1" viewBox="0.0 0.0 302.3622047244094 113.38582677165354" fill="none" stroke="none" stroke-linecap="square" stroke-miterlimit="10" xmlns:xlink="http://www.w3.org/1999/xlink" xmlns="http://www.w3.org/2000/svg"><clipPath id="p.0"><path d="m0 0l302.3622 0l0 113.385826l-302.3622 0l0 -113.385826z" clip-rule="nonzero"/></clipPath><g clip-path="url(#p.0)"><path fill="#000000" fill-opacity="0.0" d="m0 0l302.3622 0l0 113.385826l-302.3622 0z" fill-rule="evenodd"/><path fill="#000000" fill-opacity="0.0" d="m0 2.2598426l302.3622 0l0 111.11811l-302.3622 0z" fill-rule="evenodd"/><path fill="#ffffff" d="m5.375 45.21984l0 -30.53125l22.078125 0l0 3.593749l-18.03125 0l0 9.359375l16.890625 0l0 3.578125l-16.890625 0l0 10.390625l18.734375 0l0 3.609375l-22.78125 0zm42.326385 -2.734375q-2.09375 1.78125 -4.015625 2.515625q-1.921875 0.71875 -4.125 0.71875q-3.65625 0 -5.609375 -1.78125q-1.953125 -1.78125 -1.953125 -4.546875q0 -1.625 0.734375 -2.96875q0.734375 -1.34375 1.9375 -2.15625q1.203125 -0.8125 2.703125 -1.234375q1.09375 -0.28125 3.328125 -0.5625q4.53125 -0.53125 6.6875 -1.28125q0.015625 -0.78125 0.015625 -0.984375q0 -2.296875 -1.0625 -3.234375q-1.4375 -1.265625 -4.265625 -1.265625q-2.640625 0 -3.90625 0.9375q-1.265625 0.921875 -1.859375 3.265625l-3.671875 -0.5q0.5 -2.34375 1.640625 -3.796875q1.15625 -1.453125 3.3125 -2.234375q2.171875 -0.78125 5.015625 -0.78125q2.84375 0 4.609375 0.671875q1.765625 0.671875 2.59375 1.6875q0.84375 1.0 1.171875 2.546875q0.1875 0.953125 0.1875 3.453125l0 5.0q0 5.21875 0.234375 6.609375q0.25 1.390625 0.953125 2.65625l-3.90625 0q-0.59375 -1.171875 -0.75 -2.734375zm-0.3125 -8.359375q-2.046875 0.828125 -6.125 1.40625q-2.3125 0.328125 -3.28125 0.75q-0.953125 0.421875 -1.46875 1.21875q-0.515625 0.796875 -0.515625 1.78125q0 1.5 1.125 2.5q1.140625 1.0 3.328125 1.0q2.15625 0 3.84375 -0.9375q1.6875 -0.953125 2.484375 -2.609375q0.609375 -1.265625 0.609375 -3.75l0 -1.359375zm8.098373 4.484375l3.703125 -0.578125q0.3125 2.234375 1.734375 3.421875q1.4375 1.1875 4.0 1.1875q2.578125 0 3.828125 -1.046875q1.25 -1.0625 1.25 -2.484375q0 -1.265625 -1.109375 -2.0q-0.765625 -0.5 -3.828125 -1.265625q-4.125 -1.046875 -5.71875 -1.796875q-1.59375 -0.765625 -2.421875 -2.109375q-0.8125 -1.34375 -0.8125 -2.96875q0 -1.46875 0.671875 -2.734375q0.6875 -1.265625 1.84375 -2.09375q0.875 -0.640625 2.390625 -1.09375q1.515625 -0.453125 3.234375 -0.453125q2.609375 0 4.578125 0.75q1.96875 0.75 2.90625 2.03125q0.9375 1.28125 1.28125 3.4375l-3.65625 0.5q-0.25 -1.71875 -1.453125 -2.671875q-1.203125 -0.953125 -3.375 -0.953125q-2.59375 0 -3.703125 0.859375q-1.09375 0.84375 -1.09375 1.984375q0 0.734375 0.453125 1.3125q0.46875 0.609375 1.4375 1.0q0.5625 0.21875 3.3125 0.96875q3.984375 1.0625 5.546875 1.734375q1.578125 0.671875 2.46875 1.96875q0.90625 1.28125 0.90625 3.203125q0 1.875 -1.09375 3.53125q-1.09375 1.65625 -3.15625 2.5625q-2.0625 0.90625 -4.671875 0.90625q-4.3125 0 -6.578125 -1.78125q-2.25 -1.796875 -2.875 -5.328125zm31.015625 3.25l0.53125 3.3125q-1.578125 0.34375 -2.828125 0.34375q-2.03125 0 -3.15625 -0.640625q-1.125 -0.65625 -1.59375 -1.703125q-0.453125 -1.0625 -0.453125 -4.4375l0 -12.71875l-2.75 0l0 -2.921875l2.75 0l0 -5.46875l3.734375 -2.249999l0 7.718749l3.765625 0l0 2.921875l-3.765625 0l0 12.9375q0 1.59375 0.1875 2.0625q0.203125 0.453125 0.640625 0.734375q0.453125 0.265625 1.296875 0.265625q0.625 0 1.640625 -0.15625zm13.93692 -5.3125l3.640625 -0.5q0.140625 3.5 1.3125 4.796875q1.171875 1.296875 3.234375 1.296875q1.515625 0 2.609375 -0.703125q1.109375 -0.703125 1.515625 -1.890625q0.421875 -1.203125 0.421875 -3.828125l0 -21.03125l4.046875 0l0 20.796875q0 3.84375 -0.9375 5.953125q-0.921875 2.09375 -2.9375 3.203125q-2.0 1.09375 -4.703125 1.09375q-4.015625 0 -6.15625 -2.3125q-2.140625 -2.3125 -2.046875 -6.875zm38.046875 1.546875l3.875 0.484375q-0.921875 3.390625 -3.40625 5.265625q-2.46875 1.875 -6.328125 1.875q-4.84375 0 -7.6875 -2.984375q-2.84375 -3.0 -2.84375 -8.390625q0 -5.578125 2.875 -8.65625q2.875 -3.09375 7.453125 -3.09375q4.4375 0 7.25 3.03125q2.8125 3.015625 2.8125 8.5q0 0.328125 -0.015625 0.984375l-16.5 0q0.203125 3.65625 2.0625 5.59375q1.859375 1.9375 4.625 1.9375q2.0625 0 3.515625 -1.078125q1.453125 -1.09375 2.3125 -3.46875zm-12.3125 -6.0625l12.359375 0q-0.25 -2.78125 -1.421875 -4.1875q-1.796875 -2.15625 -4.640625 -2.15625q-2.578125 0 -4.34375 1.734375q-1.765625 1.71875 -1.953125 4.609375zm20.848373 13.1875l0 -22.125l3.375 0l0 3.359375q1.296875 -2.359375 2.390625 -3.109375q1.09375 -0.75 2.40625 -0.75q1.890625 0 3.84375 1.21875l-1.28125 3.46875q-1.375 -0.8125 -2.75 -0.8125q-1.234375 0 -2.21875 0.75q-0.96875 0.734375 -1.390625 2.046875q-0.625 2.0 -0.625 4.375l0 11.578125l-3.75 0zm28.75174 0l0 -3.25q-2.59375 3.75 -7.015625 3.75q-1.96875 0 -3.671875 -0.75q-1.6875 -0.75 -2.515625 -1.875q-0.8125 -1.140625 -1.15625 -2.796875q-0.21875 -1.09375 -0.21875 -3.5l0 -13.703125l3.75 0l0 12.265625q0 2.9375 0.21875 3.96875q0.359375 1.46875 1.5 2.3125q1.15625 0.84375 2.828125 0.84375q1.6875 0 3.171875 -0.859375q1.484375 -0.859375 2.09375 -2.34375q0.609375 -1.5 0.609375 -4.328125l0 -11.859375l3.75 0l0 22.125l-3.34375 0zm7.7233734 -6.609375l3.703125 -0.578125q0.3125 2.234375 1.734375 3.421875q1.4375 1.1875 4.0 1.1875q2.578125 0 3.828125 -1.046875q1.25 -1.0625 1.25 -2.484375q0 -1.265625 -1.109375 -2.0q-0.765625 -0.5 -3.828125 -1.265625q-4.125 -1.046875 -5.71875 -1.796875q-1.59375 -0.765625 -2.421875 -2.109375q-0.8125 -1.34375 -0.8125 -2.96875q0 -1.46875 0.671875 -2.734375q0.6875 -1.265625 1.84375 -2.09375q0.875 -0.640625 2.390625 -1.09375q1.515625 -0.453125 3.234375 -0.453125q2.609375 0 4.578125 0.75q1.96875 0.75 2.90625 2.03125q0.9375 1.28125 1.28125 3.4375l-3.65625 0.5q-0.25 -1.71875 -1.453125 -2.671875q-1.203125 -0.953125 -3.375 -0.953125q-2.59375 0 -3.703125 0.859375q-1.09375 0.84375 -1.09375 1.984375q0 0.734375 0.453125 1.3125q0.46875 0.609375 1.4375 1.0q0.5625 0.21875 3.3125 0.96875q3.984375 1.0625 5.546875 1.734375q1.578125 0.671875 2.46875 1.96875q0.90625 1.28125 0.90625 3.203125q0 1.875 -1.09375 3.53125q-1.09375 1.65625 -3.15625 2.5625q-2.0625 0.90625 -4.671875 0.90625q-4.3125 0 -6.578125 -1.78125q-2.25 -1.796875 -2.875 -5.328125zm37.265625 3.875q-2.09375 1.78125 -4.015625 2.515625q-1.921875 0.71875 -4.125 0.71875q-3.65625 0 -5.609375 -1.78125q-1.953125 -1.78125 -1.953125 -4.546875q0 -1.625 0.734375 -2.96875q0.734375 -1.34375 1.9375 -2.15625q1.203125 -0.8125 2.703125 -1.234375q1.09375 -0.28125 3.328125 -0.5625q4.53125 -0.53125 6.6875 -1.28125q0.015625 -0.78125 0.015625 -0.984375q0 -2.296875 -1.0625 -3.234375q-1.4375 -1.265625 -4.265625 -1.265625q-2.640625 0 -3.90625 0.9375q-1.265625 0.921875 -1.859375 3.265625l-3.671875 -0.5q0.5 -2.34375 1.640625 -3.796875q1.15625 -1.453125 3.3125 -2.234375q2.171875 -0.78125 5.015625 -0.78125q2.84375 0 4.609375 0.671875q1.765625 0.671875 2.59375 1.6875q0.84375 1.0 1.171875 2.546875q0.1875 0.953125 0.1875 3.453125l0 5.0q0 5.21875 0.234375 6.609375q0.25 1.390625 0.953125 2.65625l-3.90625 0q-0.59375 -1.171875 -0.75 -2.734375zm-0.3125 -8.359375q-2.046875 0.828125 -6.125 1.40625q-2.3125 0.328125 -3.28125 0.75q-0.953125 0.421875 -1.46875 1.21875q-0.515625 0.796875 -0.515625 1.78125q0 1.5 1.125 2.5q1.140625 1.0 3.328125 1.0q2.15625 0 3.84375 -0.9375q1.6875 -0.953125 2.484375 -2.609375q0.609375 -1.265625 0.609375 -3.75l0 -1.359375zm9.520248 11.09375l0 -30.53125l3.75 0l0 30.53125l-3.75 0zm24.695602 -7.125l3.8749847 0.484375q-0.921875 3.390625 -3.4062347 5.265625q-2.46875 1.875 -6.328125 1.875q-4.84375 0 -7.6875 -2.984375q-2.84375 -3.0 -2.84375 -8.390625q0 -5.578125 2.875 -8.65625q2.875 -3.09375 7.453125 -3.09375q4.4375 0 7.25 3.03125q2.8124847 3.015625 2.8124847 8.5q0 0.328125 -0.015625 0.984375l-16.499985 0q0.203125 3.65625 2.0625 5.59375q1.859375 1.9375 4.625 1.9375q2.0625 0 3.515625 -1.078125q1.453125 -1.09375 2.3125 -3.46875zm-12.3125 -6.0625l12.359375 0q-0.25 -2.78125 -1.421875 -4.1875q-1.796875 -2.15625 -4.640625 -2.15625q-2.578125 0 -4.34375 1.734375q-1.765625 1.71875 -1.953125 4.609375zm20.895248 13.1875l0 -22.125l3.359375 0l0 3.109375q1.03125 -1.625 2.765625 -2.609375q1.734375 -1.0 3.9375 -1.0q2.453125 0 4.015625 1.03125q1.578125 1.015625 2.234375 2.84375q2.625 -3.875 6.828125 -3.875q3.296875 0 5.0625 1.828125q1.765625 1.828125 1.765625 5.609375l0 15.1875l-3.71875 0l0 -13.9375q0 -2.25 -0.375 -3.234375q-0.359375 -0.984375 -1.328125 -1.59375q-0.953125 -0.609375 -2.234375 -0.609375q-2.34375 0 -3.890625 1.5625q-1.53125 1.546875 -1.53125 4.96875l0 12.84375l-3.75 0l0 -14.375q0 -2.5 -0.921875 -3.75q-0.90625 -1.25 -3.0 -1.25q-1.578125 0 -2.921875 0.84375q-1.34375 0.828125 -1.953125 2.4375q-0.59375 1.59375 -0.59375 4.625l0 11.46875l-3.75 0z" fill-rule="nonzero"/><path fill="#ffffff" d="m19.3125 85.00109l0 -5.15625l13.28125 0l0 12.171875q-1.9375 1.875 -5.609375 3.296875q-3.671875 1.421875 -7.453125 1.421875q-4.78125 0 -8.34375 -2.0q-3.5625 -2.015625 -5.359375 -5.75q-1.78125 -3.734375 -1.78125 -8.140625q0 -4.765625 2.0 -8.46875q2.0 -3.71875 5.84375 -5.6875q2.9375 -1.53125 7.3125 -1.53125q5.6875 0 8.875 2.390625q3.203125 2.390625 4.125 6.59375l-6.125 1.140625q-0.640625 -2.25 -2.421875 -3.546875q-1.78125 -1.296875 -4.453125 -1.296875q-4.046875 0 -6.4375 2.5625q-2.375 2.5625 -2.375 7.59375q0 5.4375 2.40625 8.15625q2.421875 2.71875 6.34375 2.71875q1.9375 0 3.875 -0.75q1.953125 -0.765625 3.359375 -1.859375l0 -3.859375l-7.0625 0zm18.788773 11.21875l0 -30.53125l6.15625 0l0 30.53125l-6.15625 0zm10.476273 -9.9375l6.0 -0.578125q0.53125 3.015625 2.1875 4.4375q1.65625 1.40625 4.46875 1.40625q2.984375 0 4.484375 -1.25q1.515625 -1.265625 1.515625 -2.953125q0 -1.078125 -0.640625 -1.828125q-0.625 -0.765625 -2.21875 -1.328125q-1.078125 -0.375 -4.9375 -1.34375q-4.953125 -1.21875 -6.953125 -3.015625q-2.8125 -2.515625 -2.8125 -6.140625q0 -2.34375 1.328125 -4.375q1.328125 -2.03125 3.8125 -3.09375q2.484375 -1.0625 6.0 -1.0625q5.75 0 8.65625 2.53125q2.90625 2.515625 3.0625 6.71875l-6.171875 0.28125q-0.390625 -2.359375 -1.703125 -3.390625q-1.296875 -1.03125 -3.90625 -1.03125q-2.6875 0 -4.203125 1.109375q-0.96875 0.703125 -0.96875 1.890625q0 1.078125 0.90625 1.859375q1.171875 0.96875 5.671875 2.03125q4.5 1.0625 6.65625 2.203125q2.15625 1.140625 3.375 3.109375q1.21875 1.96875 1.21875 4.859375q0 2.625 -1.46875 4.921875q-1.453125 2.28125 -4.125 3.40625q-2.65625 1.109375 -6.640625 1.109375q-5.78125 0 -8.890625 -2.671875q-3.109375 -2.6875 -3.703125 -7.8125z" fill-rule="nonzero"/></g></svg>