<svg version="1.1" viewBox="0.0 0.0 192.0 192.0" fill="none" stroke="none" stroke-linecap="square" stroke-miterlimit="10" xmlns:xlink="http://www.w3.org/1999/xlink" xmlns="http://www.w3.org/2000/svg"><clipPath id="p.0"><path d="m0 0l192.0 0l0 192.0l-192.0 0l0 -192.0z" clip-rule="nonzero"/></clipPath><g clip-path="url(#p.0)"><path fill="#000000" fill-opacity="0.0" d="m0 0l192.0 0l0 192.0l-192.0 0z" fill-rule="evenodd"/><path fill="#000000" fill-opacity="0.0" d="m13.544347 96.122696l0 0c0 -45.539574 36.91712 -82.456696 82.45669 -82.456696l0 0c21.868874 0 42.842056 8.687377 58.305695 24.151005c15.463623 15.463631 24.151001 36.436813 24.151001 58.305687l0 0c0 45.53958 -36.917114 82.456696 -82.456696 82.456696l0 0c-45.53957 0 -82.45669 -36.917114 -82.45669 -82.456696z" fill-rule="evenodd"/><path stroke="#000000" stroke-width="8.0" stroke-linejoin="round" stroke-linecap="butt" d="m13.544347 96.122696l0 0c0 -45.539574 36.91712 -82.456696 82.45669 -82.456696l0 0c21.868874 0 42.842056 8.687377 58.305695 24.151005c15.463623 15.463631 24.151001 36.436813 24.151001 58.305687l0 0c0 45.53958 -36.917114 82.456696 -82.456696 82.456696l0 0c-45.53957 0 -82.45669 -36.917114 -82.45669 -82.456696z" fill-rule="evenodd"/><path fill="#000000" fill-opacity="0.0" d="m96.00104 13.666003l0 83.71654" fill-rule="evenodd"/><path stroke="#000000" stroke-width="16.0" stroke-linejoin="round" stroke-linecap="butt" d="m96.00104 13.666003l0 83.71654" fill-rule="evenodd"/></g></svg>